<svg width="100" height="117" viewBox="0 0 100 117" fill="none" xmlns="http://www.w3.org/2000/svg">
<rect y="8" width="100" height="100" rx="20" fill="#5E7A7D"/>
<path d="M52.056 25.8C58.008 25.8 63.16 26.792 67.512 28.776C71.928 30.76 75.32 33.576 77.688 37.224C80.056 40.872 81.24 45.192 81.24 50.184C81.24 55.112 80.056 59.432 77.688 63.144C75.32 66.792 71.928 69.608 67.512 71.592C63.16 73.512 58.008 74.472 52.056 74.472H38.52V93H22.968V25.8H52.056ZM51.192 61.8C55.864 61.8 59.416 60.808 61.848 58.824C64.28 56.776 65.496 53.896 65.496 50.184C65.496 46.408 64.28 43.528 61.848 41.544C59.416 39.496 55.864 38.472 51.192 38.472H38.52V61.8H51.192Z" fill="white"/>
</svg>
